<svg xmlns="http://www.w3.org/2000/svg" xmlns:xlink="http://www.w3.org/1999/xlink" width="2000" zoomAndPan="magnify" viewBox="0 0 1500 1499.999933" height="2000" preserveAspectRatio="xMidYMid meet" version="1.0"><path fill="#ff5b7f" d="M 101.113281 519.414062 C 74.027344 528.296875 60.558594 556.28125 71.660156 580.265625 C 76.839844 591.515625 82.167969 597.289062 91.34375 601.734375 C 108.808594 610.171875 126.863281 607.65625 140.332031 594.921875 C 151.433594 584.410156 154.984375 575.675781 154.097656 560.277344 C 153.652344 550.652344 152.617188 546.804688 149.507812 541.472656 C 144.773438 533.332031 135.597656 524.890625 128.195312 521.78125 C 121.535156 518.96875 106.292969 517.636719 101.113281 519.414062 Z M 101.113281 519.414062 " fill-opacity="1" fill-rule="evenodd"/><path fill="#ff5b7f" d="M 1022.132812 665.394531 C 973.292969 674.28125 936.589844 707.589844 924.601562 754.230469 C 920.605469 769.625 920.898438 797.757812 925.191406 813.894531 C 934.367188 848.097656 956.863281 875.191406 988.242188 889.847656 C 1007.925781 899.027344 1015.179688 900.359375 1050.253906 901.097656 L 1082.371094 901.839844 L 1082.371094 663.175781 L 1057.65625 663.324219 C 1043.890625 663.324219 1028.054688 664.359375 1022.132812 665.394531 Z M 1022.132812 665.394531 " fill-opacity="1" fill-rule="evenodd"/><path fill="#3cc7ab" d="M 1149.710938 717.214844 C 1149.710938 831.21875 1149.859375 877.707031 1150.007812 820.410156 C 1150.304688 763.113281 1150.304688 669.835938 1150.007812 613.132812 C 1149.859375 556.429688 1149.710938 603.214844 1149.710938 717.214844 Z M 1149.710938 717.214844 " fill-opacity="1" fill-rule="evenodd"/><path fill="#3cc7ab" d="M 774.082031 527.558594 C 764.757812 532.148438 759.578125 537.179688 754.398438 546.65625 C 750.546875 553.464844 750.105469 555.835938 750.105469 566.941406 C 750.105469 577.746094 750.695312 580.5625 754.101562 587.222656 C 768.011719 613.578125 805.015625 618.019531 824.699219 595.664062 C 843.640625 574.046875 835.796875 538.808594 809.453125 526.816406 C 800.277344 522.671875 783.257812 523.117188 774.082031 527.558594 Z M 774.082031 527.558594 " fill-opacity="1" fill-rule="evenodd"/><path fill="#3cc7ab" d="M 72.25 783.101562 C 72.25 859.199219 72.398438 890.4375 72.546875 852.242188 C 72.84375 814.191406 72.84375 752.007812 72.546875 713.808594 C 72.398438 675.761719 72.25 707 72.25 783.101562 Z M 72.25 783.101562 " fill-opacity="1" fill-rule="evenodd"/><path fill="#3cc7ab" d="M 751.585938 782.359375 C 751.585938 858.015625 751.734375 888.8125 751.878906 850.761719 C 752.175781 812.5625 752.175781 750.675781 751.878906 713.070312 C 751.734375 675.464844 751.585938 706.554688 751.585938 782.359375 Z M 751.585938 782.359375 " fill-opacity="1" fill-rule="evenodd"/><path fill="#0e1d3d" d="M 1061.355469 443.460938 C 1060.613281 444.054688 1060.171875 488.324219 1060.171875 541.917969 L 1060.171875 639.191406 L 1042.855469 640.078125 C 1003.78125 642.003906 985.875 646.148438 962.191406 658.289062 C 924.453125 677.683594 901.363281 707 889.671875 750.230469 C 885.230469 766.960938 885.230469 801.164062 889.671875 818.335938 C 901.511719 864.085938 931.554688 897.695312 975.363281 914.128906 C 1000.527344 923.605469 1008.664062 924.34375 1082.371094 924.492188 L 1148.234375 924.492188 L 1148.675781 715.289062 L 1148.972656 506.089844 L 1145.273438 494.835938 C 1137.132812 470.703125 1119.371094 454.269531 1092.730469 446.421875 C 1083.40625 443.609375 1062.984375 441.683594 1061.355469 443.460938 Z M 1082.371094 782.507812 L 1082.371094 901.839844 L 1050.253906 901.097656 C 1015.179688 900.359375 1007.925781 899.027344 988.242188 889.847656 C 956.863281 875.191406 934.367188 848.097656 925.191406 813.894531 C 920.898438 797.757812 920.605469 769.625 924.601562 754.230469 C 933.183594 721.066406 956.863281 691.453125 986.613281 676.796875 C 1007.332031 666.730469 1024.207031 663.472656 1057.65625 663.324219 L 1082.371094 663.175781 Z M 1082.371094 782.507812 " fill-opacity="1" fill-rule="evenodd"/><path fill="#0e1d3d" d="M 359.671875 639.632812 C 337.175781 642.152344 317.195312 651.628906 300.027344 667.914062 L 289.222656 678.277344 L 288.78125 661.398438 L 288.335938 644.667969 L 208.414062 644.667969 L 207.96875 782.804688 L 207.675781 920.789062 L 247.929688 920.496094 L 288.335938 920.050781 L 289.074219 818.632812 L 289.816406 717.214844 L 293.367188 708.332031 C 298.398438 695.746094 312.164062 682.125 323.117188 678.871094 C 332.292969 676.203125 343.539062 675.761719 351.53125 677.980469 C 358.488281 679.90625 368.699219 687.605469 372.992188 694.265625 C 380.6875 705.519531 381.28125 710.109375 382.316406 771.996094 C 383.5 836.992188 383.945312 840.398438 395.785156 863.199219 C 419.316406 908.355469 476.003906 931.15625 565.25 931.15625 C 626.375 931.15625 666.632812 919.308594 691.199219 893.84375 C 719.023438 865.121094 720.949219 820.261719 695.492188 789.171875 C 687.945312 779.992188 671.21875 766.960938 658.492188 760.59375 C 653.457031 758.078125 637.769531 750.527344 623.5625 744.011719 C 587.894531 727.28125 573.390625 717.066406 568.210938 704.335938 C 563.472656 693.082031 566.730469 681.386719 577.386719 671.761719 C 586.117188 663.914062 596.625 661.101562 614.535156 661.992188 C 637.328125 663.175781 657.453125 672.800781 673.585938 690.566406 C 679.0625 696.488281 682.023438 698.707031 683.800781 698.117188 C 685.28125 697.523438 690.3125 693.527344 695.046875 688.9375 L 703.632812 680.792969 L 699.785156 676.203125 C 678.914062 651.332031 639.398438 637.710938 594.703125 639.929688 C 559.773438 641.707031 537.128906 650.589844 518.183594 669.984375 C 494.058594 694.414062 490.953125 735.574219 510.933594 765.035156 C 522.476562 782.0625 542.308594 795.832031 582.121094 814.042969 C 617.640625 830.476562 626.671875 836.546875 633.183594 848.390625 C 640.878906 862.753906 637.769531 880.371094 625.339844 891.476562 C 609.648438 905.6875 585.378906 911.167969 554.890625 907.464844 C 510.191406 902.136719 481.183594 881.113281 468.898438 845.132812 L 464.605469 832.699219 L 463.570312 772.734375 C 462.683594 718.546875 462.386719 711.738281 459.574219 701.375 C 457.945312 695.15625 454.988281 687.160156 453.210938 683.605469 C 437.078125 651.332031 401.855469 634.75 359.671875 639.632812 Z M 359.671875 639.632812 " fill-opacity="1" fill-rule="evenodd"/><path fill="#0e1d3d" d="M 1284.246094 644.519531 C 1261.75 650.441406 1242.953125 661.101562 1225.34375 677.832031 C 1200.328125 701.964844 1186.566406 731.578125 1182.71875 770.070312 C 1177.980469 816.855469 1192.042969 858.902344 1221.492188 887.183594 C 1235.40625 900.507812 1247.394531 908.207031 1264.859375 914.867188 C 1284.246094 922.417969 1295.199219 924.195312 1321.394531 924.195312 C 1342.265625 924.195312 1346.851562 923.75 1359.875 920.199219 C 1375.417969 916.199219 1394.359375 907.761719 1406.203125 899.914062 C 1413.75 894.882812 1430.179688 879.484375 1430.179688 877.410156 C 1430.179688 875.632812 1421 864.53125 1419.523438 864.53125 C 1418.78125 864.53125 1414.636719 867.195312 1410.34375 870.453125 C 1382.667969 891.476562 1343.152344 894.882812 1312.515625 878.890625 C 1299.640625 872.230469 1284.246094 856.238281 1276.550781 841.285156 C 1273.148438 834.621094 1270.777344 828.847656 1271.371094 828.550781 C 1272.109375 828.257812 1277.585938 827.367188 1283.65625 826.925781 C 1301.121094 825.296875 1331.460938 818.929688 1348.480469 813.304688 C 1373.9375 805.011719 1391.695312 794.796875 1406.644531 780.136719 C 1434.027344 753.191406 1440.242188 722.25 1424.703125 689.824219 C 1418.929688 677.832031 1401.167969 660.804688 1387.109375 653.847656 C 1368.164062 644.519531 1356.324219 642.152344 1325.097656 641.558594 C 1299.789062 640.96875 1296.679688 641.261719 1284.246094 644.519531 Z M 1340.191406 666.582031 C 1357.066406 673.984375 1367.425781 699.449219 1363.578125 724.765625 C 1361.355469 738.832031 1356.621094 752.007812 1349.8125 762.667969 C 1342.117188 774.808594 1325.539062 789.316406 1311.183594 796.425781 C 1297.714844 803.085938 1268.261719 811.230469 1265.894531 808.859375 C 1261.75 804.714844 1259.976562 761.484375 1263.082031 739.277344 C 1265.007812 725.210938 1271.964844 703.742188 1277.734375 693.527344 C 1292.980469 666.875 1316.808594 656.660156 1340.191406 666.582031 Z M 1340.191406 666.582031 " fill-opacity="1" fill-rule="evenodd"/><path fill="#0e1d3d" d="M 72.992188 782.210938 L 72.992188 920.789062 L 152.617188 920.789062 L 153.503906 907.023438 C 153.949219 899.617188 154.246094 845.726562 153.949219 787.542969 C 153.503906 684.050781 153.503906 681.535156 150.398438 673.984375 C 145.660156 661.992188 139.296875 655.03125 128.046875 649.554688 C 118.429688 644.816406 117.6875 644.667969 95.636719 644.222656 L 72.992188 643.632812 Z M 72.992188 782.210938 " fill-opacity="1" fill-rule="evenodd"/><path fill="#0e1d3d" d="M 753.359375 644.964844 C 752.769531 645.410156 752.324219 707.738281 752.324219 783.394531 L 752.324219 920.789062 L 792.730469 920.496094 L 832.984375 920.050781 L 832.984375 678.722656 L 829.285156 671.316406 C 822.476562 657.402344 810.195312 648.519531 793.914062 645.410156 C 785.035156 643.78125 754.839844 643.335938 753.359375 644.964844 Z M 753.359375 644.964844 " fill-opacity="1" fill-rule="evenodd"/></svg>